<!-- This is a placeholder SVG logo for MindBuddy -->
<svg width="32" height="32" viewBox="0 0 32 32" fill="none" xmlns="http://www.w3.org/2000/svg">
  <defs>
    <linearGradient id="gradient" x1="0%" y1="0%" x2="100%" y2="100%">
      <stop offset="0%" style="stop-color:#3b82f6"/>
      <stop offset="100%" style="stop-color:#10b981"/>
    </linearGradient>
  </defs>
  <rect width="32" height="32" rx="8" fill="url(#gradient)"/>
  <path d="M16 8C12.6863 8 10 10.6863 10 14C10 17.3137 12.6863 20 16 20C19.3137 20 22 17.3137 22 14C22 10.6863 19.3137 8 16 8Z" fill="white" opacity="0.9"/>
  <path d="M14 12C14 11.4477 14.4477 11 15 11C15.5523 11 16 11.4477 16 12C16 12.5523 15.5523 13 15 13C14.4477 13 14 12.5523 14 12Z" fill="url(#gradient)"/>
  <path d="M17 12C17 11.4477 17.4477 11 18 11C18.5523 11 19 11.4477 19 12C19 12.5523 18.5523 13 18 13C17.4477 13 17 12.5523 17 12Z" fill="url(#gradient)"/>
  <path d="M15 15C15 14.4477 15.4477 14 16 14C16.5523 14 17 14.4477 17 15V16C17 16.5523 16.5523 17 16 17C15.4477 17 15 16.5523 15 16V15Z" fill="url(#gradient)"/>
  <circle cx="16" cy="24" r="6" fill="white" opacity="0.1"/>
  <path d="M13 22C13.5523 22 14 22.4477 14 23C14 23.5523 13.5523 24 13 24C12.4477 24 12 23.5523 12 23C12 22.4477 12.4477 22 13 22Z" fill="white"/>
  <path d="M19 22C19.5523 22 20 22.4477 20 23C20 23.5523 19.5523 24 19 24C18.4477 24 18 23.5523 18 23C18 22.4477 18.4477 22 19 22Z" fill="white"/>
</svg>
